<mxfile host="app.diagrams.net" modified="2024-04-08T14:56:04.462Z" agent="Mozilla/5.0 (Windows NT 10.0; Win64; x64) AppleWebKit/537.36 (KHTML, like Gecko) Chrome/123.0.0.0 Safari/537.36" etag="4Q9SaCTTnUt8DVZHPpGs" version="24.2.2" type="onedrive">
  <diagram name="Página-1" id="nZYxX6GegPcY7DOCxlNy">
    <mxGraphModel grid="1" page="1" gridSize="10" guides="1" tooltips="1" connect="1" arrows="1" fold="1" pageScale="1" pageWidth="827" pageHeight="1169" math="0" shadow="0">
      <root>
        <mxCell id="0" />
        <mxCell id="1" parent="0" />
        <mxCell id="0NSMT4B0oJafNMBnnf4J-5" value="Verificação de Número Positivo ou Negativo" style="swimlane;whiteSpace=wrap;html=1;" vertex="1" parent="1">
          <mxGeometry x="-130" y="-25" width="490" height="615" as="geometry" />
        </mxCell>
        <mxCell id="0NSMT4B0oJafNMBnnf4J-6" value="&lt;font style=&quot;font-size: 18px;&quot;&gt;&lt;b&gt;ÍNICIO&lt;/b&gt;&lt;/font&gt;" style="ellipse;whiteSpace=wrap;html=1;" vertex="1" parent="0NSMT4B0oJafNMBnnf4J-5">
          <mxGeometry x="195" y="50" width="120" height="80" as="geometry" />
        </mxCell>
        <mxCell id="0NSMT4B0oJafNMBnnf4J-7" value="&lt;font style=&quot;font-size: 18px;&quot;&gt;&lt;b&gt;N1&lt;/b&gt;&lt;/font&gt;" style="shape=parallelogram;perimeter=parallelogramPerimeter;whiteSpace=wrap;html=1;fixedSize=1;" vertex="1" parent="0NSMT4B0oJafNMBnnf4J-5">
          <mxGeometry x="195" y="170" width="120" height="60" as="geometry" />
        </mxCell>
        <mxCell id="0NSMT4B0oJafNMBnnf4J-8" value="" style="endArrow=classic;html=1;rounded=0;exitX=0.5;exitY=1;exitDx=0;exitDy=0;entryX=0.5;entryY=0;entryDx=0;entryDy=0;" edge="1" parent="0NSMT4B0oJafNMBnnf4J-5" source="0NSMT4B0oJafNMBnnf4J-6" target="0NSMT4B0oJafNMBnnf4J-7">
          <mxGeometry width="50" height="50" relative="1" as="geometry">
            <mxPoint x="380" y="400" as="sourcePoint" />
            <mxPoint x="430" y="350" as="targetPoint" />
          </mxGeometry>
        </mxCell>
        <mxCell id="0NSMT4B0oJafNMBnnf4J-9" value="&lt;font style=&quot;font-size: 18px;&quot;&gt;&lt;b&gt;N1!=0&lt;/b&gt;&lt;/font&gt;" style="rhombus;whiteSpace=wrap;html=1;" vertex="1" parent="0NSMT4B0oJafNMBnnf4J-5">
          <mxGeometry x="210" y="270" width="90" height="110" as="geometry" />
        </mxCell>
        <mxCell id="0NSMT4B0oJafNMBnnf4J-11" value="" style="endArrow=classic;html=1;rounded=0;exitX=0.5;exitY=1;exitDx=0;exitDy=0;" edge="1" parent="0NSMT4B0oJafNMBnnf4J-5" source="0NSMT4B0oJafNMBnnf4J-7" target="0NSMT4B0oJafNMBnnf4J-9">
          <mxGeometry width="50" height="50" relative="1" as="geometry">
            <mxPoint x="450" y="300" as="sourcePoint" />
            <mxPoint x="500" y="250" as="targetPoint" />
          </mxGeometry>
        </mxCell>
        <mxCell id="0NSMT4B0oJafNMBnnf4J-18" value="&lt;b&gt;&lt;font style=&quot;font-size: 18px;&quot;&gt;FIM&lt;/font&gt;&lt;/b&gt;" style="ellipse;whiteSpace=wrap;html=1;" vertex="1" parent="0NSMT4B0oJafNMBnnf4J-5">
          <mxGeometry x="195" y="475" width="120" height="80" as="geometry" />
        </mxCell>
        <mxCell id="0NSMT4B0oJafNMBnnf4J-16" value="" style="endArrow=classic;html=1;rounded=0;exitX=1;exitY=0.5;exitDx=0;exitDy=0;entryX=0.5;entryY=0;entryDx=0;entryDy=0;" edge="1" parent="0NSMT4B0oJafNMBnnf4J-5" source="0NSMT4B0oJafNMBnnf4J-9" target="0NSMT4B0oJafNMBnnf4J-24">
          <mxGeometry width="50" height="50" relative="1" as="geometry">
            <mxPoint x="540" y="400" as="sourcePoint" />
            <mxPoint x="360" y="385" as="targetPoint" />
          </mxGeometry>
        </mxCell>
        <mxCell id="0NSMT4B0oJafNMBnnf4J-17" value="Ele é Negativo" style="edgeLabel;html=1;align=center;verticalAlign=middle;resizable=0;points=[];" connectable="0" vertex="1" parent="0NSMT4B0oJafNMBnnf4J-16">
          <mxGeometry x="-0.2652" y="1" relative="1" as="geometry">
            <mxPoint x="1" as="offset" />
          </mxGeometry>
        </mxCell>
        <mxCell id="0NSMT4B0oJafNMBnnf4J-12" value="" style="endArrow=classic;html=1;rounded=0;exitX=0;exitY=0.5;exitDx=0;exitDy=0;entryX=0.5;entryY=0;entryDx=0;entryDy=0;" edge="1" parent="0NSMT4B0oJafNMBnnf4J-5" source="0NSMT4B0oJafNMBnnf4J-9" target="0NSMT4B0oJafNMBnnf4J-23">
          <mxGeometry width="50" height="50" relative="1" as="geometry">
            <mxPoint x="540" y="300" as="sourcePoint" />
            <mxPoint x="160" y="385" as="targetPoint" />
          </mxGeometry>
        </mxCell>
        <mxCell id="0NSMT4B0oJafNMBnnf4J-13" value="Ele é Positivo" style="edgeLabel;html=1;align=center;verticalAlign=middle;resizable=0;points=[];" connectable="0" vertex="1" parent="0NSMT4B0oJafNMBnnf4J-12">
          <mxGeometry x="0.1556" y="4" relative="1" as="geometry">
            <mxPoint as="offset" />
          </mxGeometry>
        </mxCell>
        <mxCell id="0NSMT4B0oJafNMBnnf4J-21" value="" style="endArrow=classic;html=1;rounded=0;exitX=0.442;exitY=0.888;exitDx=0;exitDy=0;entryX=0;entryY=0;entryDx=0;entryDy=0;exitPerimeter=0;" edge="1" parent="0NSMT4B0oJafNMBnnf4J-5" source="0NSMT4B0oJafNMBnnf4J-23" target="0NSMT4B0oJafNMBnnf4J-18">
          <mxGeometry width="50" height="50" relative="1" as="geometry">
            <mxPoint x="160" y="445" as="sourcePoint" />
            <mxPoint x="590" y="250" as="targetPoint" />
          </mxGeometry>
        </mxCell>
        <mxCell id="0NSMT4B0oJafNMBnnf4J-23" value="&lt;font style=&quot;font-size: 18px;&quot;&gt;&lt;b&gt;N1&amp;gt;0&lt;/b&gt;&lt;/font&gt;" style="shape=document;whiteSpace=wrap;html=1;boundedLbl=1;" vertex="1" parent="0NSMT4B0oJafNMBnnf4J-5">
          <mxGeometry x="75" y="380" width="120" height="80" as="geometry" />
        </mxCell>
        <mxCell id="0NSMT4B0oJafNMBnnf4J-24" value="&lt;font style=&quot;font-size: 18px;&quot;&gt;&lt;b&gt;N1&amp;lt;0&lt;/b&gt;&lt;/font&gt;" style="shape=document;whiteSpace=wrap;html=1;boundedLbl=1;" vertex="1" parent="0NSMT4B0oJafNMBnnf4J-5">
          <mxGeometry x="315" y="380" width="120" height="80" as="geometry" />
        </mxCell>
        <mxCell id="0NSMT4B0oJafNMBnnf4J-25" value="" style="endArrow=classic;html=1;rounded=0;exitX=0.15;exitY=0.95;exitDx=0;exitDy=0;exitPerimeter=0;entryX=1;entryY=0;entryDx=0;entryDy=0;" edge="1" parent="0NSMT4B0oJafNMBnnf4J-5" source="0NSMT4B0oJafNMBnnf4J-24" target="0NSMT4B0oJafNMBnnf4J-18">
          <mxGeometry width="50" height="50" relative="1" as="geometry">
            <mxPoint x="540" y="300" as="sourcePoint" />
            <mxPoint x="590" y="250" as="targetPoint" />
          </mxGeometry>
        </mxCell>
        <mxCell id="0NSMT4B0oJafNMBnnf4J-41" value="" style="endArrow=classic;html=1;rounded=0;exitX=0.5;exitY=1;exitDx=0;exitDy=0;entryX=0.5;entryY=0;entryDx=0;entryDy=0;" edge="1" parent="0NSMT4B0oJafNMBnnf4J-5" source="0NSMT4B0oJafNMBnnf4J-9" target="0NSMT4B0oJafNMBnnf4J-18">
          <mxGeometry width="50" height="50" relative="1" as="geometry">
            <mxPoint x="640" y="305" as="sourcePoint" />
            <mxPoint x="690" y="255" as="targetPoint" />
          </mxGeometry>
        </mxCell>
        <mxCell id="0NSMT4B0oJafNMBnnf4J-43" value="Ele é Zero" style="edgeLabel;html=1;align=center;verticalAlign=middle;resizable=0;points=[];" connectable="0" vertex="1" parent="0NSMT4B0oJafNMBnnf4J-41">
          <mxGeometry x="-0.1243" y="3" relative="1" as="geometry">
            <mxPoint as="offset" />
          </mxGeometry>
        </mxCell>
        <mxCell id="0NSMT4B0oJafNMBnnf4J-26" value="Identificação do Maior Entre Três Números" style="swimlane;whiteSpace=wrap;html=1;" vertex="1" parent="1">
          <mxGeometry x="360" y="-25" width="490" height="615" as="geometry" />
        </mxCell>
        <mxCell id="0NSMT4B0oJafNMBnnf4J-27" value="&lt;font style=&quot;font-size: 18px;&quot;&gt;&lt;b&gt;ÍNICIO&lt;/b&gt;&lt;/font&gt;" style="ellipse;whiteSpace=wrap;html=1;" vertex="1" parent="0NSMT4B0oJafNMBnnf4J-26">
          <mxGeometry x="185" y="45" width="120" height="80" as="geometry" />
        </mxCell>
        <mxCell id="0NSMT4B0oJafNMBnnf4J-29" value="&lt;font style=&quot;font-size: 18px;&quot;&gt;&lt;b&gt;N1&lt;/b&gt;&lt;/font&gt;" style="shape=parallelogram;perimeter=parallelogramPerimeter;whiteSpace=wrap;html=1;fixedSize=1;" vertex="1" parent="0NSMT4B0oJafNMBnnf4J-26">
          <mxGeometry x="30" y="65" width="120" height="60" as="geometry" />
        </mxCell>
        <mxCell id="0NSMT4B0oJafNMBnnf4J-31" value="&lt;font style=&quot;font-size: 18px;&quot;&gt;&lt;b&gt;N2&lt;/b&gt;&lt;/font&gt;" style="shape=parallelogram;perimeter=parallelogramPerimeter;whiteSpace=wrap;html=1;fixedSize=1;" vertex="1" parent="0NSMT4B0oJafNMBnnf4J-26">
          <mxGeometry x="20" y="155" width="120" height="60" as="geometry" />
        </mxCell>
        <mxCell id="0NSMT4B0oJafNMBnnf4J-44" value="&lt;font style=&quot;font-size: 18px;&quot;&gt;&lt;b&gt;N1&amp;gt;N2 e N1&amp;gt;N3&lt;/b&gt;&lt;/font&gt;" style="rhombus;whiteSpace=wrap;html=1;" vertex="1" parent="0NSMT4B0oJafNMBnnf4J-26">
          <mxGeometry x="20" y="355" width="166" height="131.25" as="geometry" />
        </mxCell>
        <mxCell id="0NSMT4B0oJafNMBnnf4J-46" value="&lt;font style=&quot;font-size: 18px;&quot;&gt;&lt;b&gt;N2&amp;gt;N3 e N2&amp;gt;N1&lt;/b&gt;&lt;/font&gt;" style="rhombus;whiteSpace=wrap;html=1;" vertex="1" parent="0NSMT4B0oJafNMBnnf4J-26">
          <mxGeometry x="186" y="135" width="167" height="131.25" as="geometry" />
        </mxCell>
        <mxCell id="0NSMT4B0oJafNMBnnf4J-50" value="&lt;font style=&quot;font-size: 18px;&quot;&gt;&lt;b&gt;FIM&lt;/b&gt;&lt;/font&gt;" style="ellipse;whiteSpace=wrap;html=1;" vertex="1" parent="0NSMT4B0oJafNMBnnf4J-26">
          <mxGeometry x="320" y="491.25" width="120" height="80" as="geometry" />
        </mxCell>
        <mxCell id="0NSMT4B0oJafNMBnnf4J-66" value="&lt;font style=&quot;font-size: 18px;&quot;&gt;&lt;b&gt;O maior número é N1&lt;/b&gt;&lt;/font&gt;" style="shape=document;whiteSpace=wrap;html=1;boundedLbl=1;size=0.375;" vertex="1" parent="0NSMT4B0oJafNMBnnf4J-26">
          <mxGeometry x="120" y="486.25" width="140" height="85" as="geometry" />
        </mxCell>
        <mxCell id="0NSMT4B0oJafNMBnnf4J-67" value="&lt;font style=&quot;font-size: 18px;&quot;&gt;&lt;b&gt;O maior número é N3&lt;/b&gt;&lt;/font&gt;" style="shape=document;whiteSpace=wrap;html=1;boundedLbl=1;" vertex="1" parent="0NSMT4B0oJafNMBnnf4J-26">
          <mxGeometry x="220" y="365" width="130" height="80" as="geometry" />
        </mxCell>
        <mxCell id="0NSMT4B0oJafNMBnnf4J-68" value="&lt;font style=&quot;font-size: 18px;&quot;&gt;&lt;b&gt;O maior número é N2&lt;/b&gt;&lt;/font&gt;" style="shape=document;whiteSpace=wrap;html=1;boundedLbl=1;" vertex="1" parent="0NSMT4B0oJafNMBnnf4J-26">
          <mxGeometry x="330" y="255" width="130" height="85" as="geometry" />
        </mxCell>
        <mxCell id="0NSMT4B0oJafNMBnnf4J-32" value="&lt;font style=&quot;font-size: 18px;&quot;&gt;&lt;b&gt;N3&lt;/b&gt;&lt;/font&gt;" style="shape=parallelogram;perimeter=parallelogramPerimeter;whiteSpace=wrap;html=1;fixedSize=1;" vertex="1" parent="0NSMT4B0oJafNMBnnf4J-26">
          <mxGeometry x="10" y="245" width="120" height="60" as="geometry" />
        </mxCell>
        <mxCell id="0NSMT4B0oJafNMBnnf4J-91" value="" style="endArrow=classic;html=1;rounded=0;exitX=0.5;exitY=1;exitDx=0;exitDy=0;entryX=0.5;entryY=0;entryDx=0;entryDy=0;" edge="1" parent="0NSMT4B0oJafNMBnnf4J-26" source="0NSMT4B0oJafNMBnnf4J-29" target="0NSMT4B0oJafNMBnnf4J-31">
          <mxGeometry width="50" height="50" relative="1" as="geometry">
            <mxPoint x="320" y="305" as="sourcePoint" />
            <mxPoint x="370" y="255" as="targetPoint" />
          </mxGeometry>
        </mxCell>
        <mxCell id="0NSMT4B0oJafNMBnnf4J-92" value="" style="endArrow=classic;html=1;rounded=0;exitX=0.5;exitY=1;exitDx=0;exitDy=0;entryX=0.5;entryY=0;entryDx=0;entryDy=0;" edge="1" parent="0NSMT4B0oJafNMBnnf4J-26" source="0NSMT4B0oJafNMBnnf4J-31" target="0NSMT4B0oJafNMBnnf4J-32">
          <mxGeometry width="50" height="50" relative="1" as="geometry">
            <mxPoint x="320" y="305" as="sourcePoint" />
            <mxPoint x="370" y="255" as="targetPoint" />
          </mxGeometry>
        </mxCell>
        <mxCell id="0NSMT4B0oJafNMBnnf4J-93" value="" style="endArrow=classic;html=1;rounded=0;exitX=0;exitY=0.5;exitDx=0;exitDy=0;entryX=1;entryY=0.5;entryDx=0;entryDy=0;" edge="1" parent="0NSMT4B0oJafNMBnnf4J-26" source="0NSMT4B0oJafNMBnnf4J-27" target="0NSMT4B0oJafNMBnnf4J-29">
          <mxGeometry width="50" height="50" relative="1" as="geometry">
            <mxPoint x="320" y="305" as="sourcePoint" />
            <mxPoint x="370" y="255" as="targetPoint" />
          </mxGeometry>
        </mxCell>
        <mxCell id="0NSMT4B0oJafNMBnnf4J-94" value="" style="endArrow=classic;html=1;rounded=0;exitX=1;exitY=0.5;exitDx=0;exitDy=0;entryX=0;entryY=1;entryDx=0;entryDy=0;" edge="1" parent="0NSMT4B0oJafNMBnnf4J-26" source="0NSMT4B0oJafNMBnnf4J-32" target="0NSMT4B0oJafNMBnnf4J-46">
          <mxGeometry width="50" height="50" relative="1" as="geometry">
            <mxPoint x="320" y="305" as="sourcePoint" />
            <mxPoint x="370" y="255" as="targetPoint" />
          </mxGeometry>
        </mxCell>
        <mxCell id="0NSMT4B0oJafNMBnnf4J-95" value="" style="endArrow=classic;html=1;rounded=0;exitX=0.5;exitY=1;exitDx=0;exitDy=0;entryX=0;entryY=0;entryDx=0;entryDy=0;" edge="1" parent="0NSMT4B0oJafNMBnnf4J-26" source="0NSMT4B0oJafNMBnnf4J-32" target="0NSMT4B0oJafNMBnnf4J-44">
          <mxGeometry width="50" height="50" relative="1" as="geometry">
            <mxPoint x="320" y="305" as="sourcePoint" />
            <mxPoint x="370" y="255" as="targetPoint" />
          </mxGeometry>
        </mxCell>
        <mxCell id="0NSMT4B0oJafNMBnnf4J-96" value="" style="endArrow=classic;html=1;rounded=0;exitX=1;exitY=1;exitDx=0;exitDy=0;entryX=0.5;entryY=0;entryDx=0;entryDy=0;" edge="1" parent="0NSMT4B0oJafNMBnnf4J-26" source="0NSMT4B0oJafNMBnnf4J-44" target="0NSMT4B0oJafNMBnnf4J-66">
          <mxGeometry width="50" height="50" relative="1" as="geometry">
            <mxPoint x="320" y="305" as="sourcePoint" />
            <mxPoint x="370" y="255" as="targetPoint" />
          </mxGeometry>
        </mxCell>
        <mxCell id="0NSMT4B0oJafNMBnnf4J-97" value="" style="endArrow=classic;html=1;rounded=0;exitX=1;exitY=0;exitDx=0;exitDy=0;entryX=0;entryY=0.25;entryDx=0;entryDy=0;" edge="1" parent="0NSMT4B0oJafNMBnnf4J-26" source="0NSMT4B0oJafNMBnnf4J-44" target="0NSMT4B0oJafNMBnnf4J-67">
          <mxGeometry width="50" height="50" relative="1" as="geometry">
            <mxPoint x="320" y="305" as="sourcePoint" />
            <mxPoint x="370" y="255" as="targetPoint" />
          </mxGeometry>
        </mxCell>
        <mxCell id="0NSMT4B0oJafNMBnnf4J-98" value="" style="endArrow=classic;html=1;rounded=0;exitX=0.5;exitY=1;exitDx=0;exitDy=0;entryX=0.25;entryY=0;entryDx=0;entryDy=0;" edge="1" parent="0NSMT4B0oJafNMBnnf4J-26" source="0NSMT4B0oJafNMBnnf4J-46" target="0NSMT4B0oJafNMBnnf4J-67">
          <mxGeometry width="50" height="50" relative="1" as="geometry">
            <mxPoint x="320" y="305" as="sourcePoint" />
            <mxPoint x="370" y="255" as="targetPoint" />
          </mxGeometry>
        </mxCell>
        <mxCell id="0NSMT4B0oJafNMBnnf4J-99" value="" style="endArrow=classic;html=1;rounded=0;exitX=1;exitY=1;exitDx=0;exitDy=0;entryX=0.25;entryY=0;entryDx=0;entryDy=0;" edge="1" parent="0NSMT4B0oJafNMBnnf4J-26" source="0NSMT4B0oJafNMBnnf4J-46" target="0NSMT4B0oJafNMBnnf4J-68">
          <mxGeometry width="50" height="50" relative="1" as="geometry">
            <mxPoint x="320" y="305" as="sourcePoint" />
            <mxPoint x="370" y="255" as="targetPoint" />
          </mxGeometry>
        </mxCell>
        <mxCell id="0NSMT4B0oJafNMBnnf4J-100" value="" style="endArrow=classic;html=1;rounded=0;exitX=1;exitY=0.5;exitDx=0;exitDy=0;entryX=0;entryY=0.5;entryDx=0;entryDy=0;" edge="1" parent="0NSMT4B0oJafNMBnnf4J-26" source="0NSMT4B0oJafNMBnnf4J-66" target="0NSMT4B0oJafNMBnnf4J-50">
          <mxGeometry width="50" height="50" relative="1" as="geometry">
            <mxPoint x="320" y="305" as="sourcePoint" />
            <mxPoint x="370" y="255" as="targetPoint" />
          </mxGeometry>
        </mxCell>
        <mxCell id="0NSMT4B0oJafNMBnnf4J-101" value="" style="endArrow=classic;html=1;rounded=0;exitX=0.477;exitY=0.888;exitDx=0;exitDy=0;entryX=0.342;entryY=0.059;entryDx=0;entryDy=0;entryPerimeter=0;exitPerimeter=0;" edge="1" parent="0NSMT4B0oJafNMBnnf4J-26" source="0NSMT4B0oJafNMBnnf4J-67" target="0NSMT4B0oJafNMBnnf4J-50">
          <mxGeometry width="50" height="50" relative="1" as="geometry">
            <mxPoint x="320" y="305" as="sourcePoint" />
            <mxPoint x="370" y="255" as="targetPoint" />
          </mxGeometry>
        </mxCell>
        <mxCell id="0NSMT4B0oJafNMBnnf4J-102" value="" style="endArrow=classic;html=1;rounded=0;exitX=0.477;exitY=0.894;exitDx=0;exitDy=0;exitPerimeter=0;entryX=0.775;entryY=0.084;entryDx=0;entryDy=0;entryPerimeter=0;" edge="1" parent="0NSMT4B0oJafNMBnnf4J-26" source="0NSMT4B0oJafNMBnnf4J-68" target="0NSMT4B0oJafNMBnnf4J-50">
          <mxGeometry width="50" height="50" relative="1" as="geometry">
            <mxPoint x="320" y="305" as="sourcePoint" />
            <mxPoint x="410" y="495" as="targetPoint" />
          </mxGeometry>
        </mxCell>
        <mxCell id="0NSMT4B0oJafNMBnnf4J-60" value="Controle de Processos Judiciários" style="swimlane;whiteSpace=wrap;html=1;" vertex="1" parent="1">
          <mxGeometry x="850" y="-25" width="950" height="615" as="geometry" />
        </mxCell>
        <mxCell id="0NSMT4B0oJafNMBnnf4J-103" value="&lt;font style=&quot;font-size: 18px;&quot;&gt;&lt;b&gt;ÍNICIO&lt;/b&gt;&lt;/font&gt;" style="ellipse;whiteSpace=wrap;html=1;" vertex="1" parent="0NSMT4B0oJafNMBnnf4J-60">
          <mxGeometry x="40" y="45" width="120" height="80" as="geometry" />
        </mxCell>
        <mxCell id="0NSMT4B0oJafNMBnnf4J-142" style="edgeStyle=orthogonalEdgeStyle;rounded=0;orthogonalLoop=1;jettySize=auto;html=1;exitX=0.5;exitY=1;exitDx=0;exitDy=0;entryX=0.5;entryY=0;entryDx=0;entryDy=0;" edge="1" parent="0NSMT4B0oJafNMBnnf4J-60" source="0NSMT4B0oJafNMBnnf4J-107" target="0NSMT4B0oJafNMBnnf4J-108">
          <mxGeometry relative="1" as="geometry" />
        </mxCell>
        <mxCell id="0NSMT4B0oJafNMBnnf4J-107" value="abril = 5" style="shape=parallelogram;perimeter=parallelogramPerimeter;whiteSpace=wrap;html=1;fixedSize=1;" vertex="1" parent="0NSMT4B0oJafNMBnnf4J-60">
          <mxGeometry x="510" y="65" width="120" height="60" as="geometry" />
        </mxCell>
        <mxCell id="0NSMT4B0oJafNMBnnf4J-143" style="edgeStyle=orthogonalEdgeStyle;rounded=0;orthogonalLoop=1;jettySize=auto;html=1;exitX=0.5;exitY=1;exitDx=0;exitDy=0;" edge="1" parent="0NSMT4B0oJafNMBnnf4J-60" source="0NSMT4B0oJafNMBnnf4J-108" target="0NSMT4B0oJafNMBnnf4J-110">
          <mxGeometry relative="1" as="geometry" />
        </mxCell>
        <mxCell id="0NSMT4B0oJafNMBnnf4J-108" value="maio = 12" style="shape=parallelogram;perimeter=parallelogramPerimeter;whiteSpace=wrap;html=1;fixedSize=1;" vertex="1" parent="0NSMT4B0oJafNMBnnf4J-60">
          <mxGeometry x="510" y="165" width="120" height="60" as="geometry" />
        </mxCell>
        <mxCell id="0NSMT4B0oJafNMBnnf4J-145" style="edgeStyle=orthogonalEdgeStyle;rounded=0;orthogonalLoop=1;jettySize=auto;html=1;exitX=0.5;exitY=1;exitDx=0;exitDy=0;entryX=0.5;entryY=0;entryDx=0;entryDy=0;" edge="1" parent="0NSMT4B0oJafNMBnnf4J-60" source="0NSMT4B0oJafNMBnnf4J-109" target="0NSMT4B0oJafNMBnnf4J-111">
          <mxGeometry relative="1" as="geometry" />
        </mxCell>
        <mxCell id="0NSMT4B0oJafNMBnnf4J-109" value="julho = 1" style="shape=parallelogram;perimeter=parallelogramPerimeter;whiteSpace=wrap;html=1;fixedSize=1;" vertex="1" parent="0NSMT4B0oJafNMBnnf4J-60">
          <mxGeometry x="510" y="355" width="120" height="60" as="geometry" />
        </mxCell>
        <mxCell id="0NSMT4B0oJafNMBnnf4J-144" style="edgeStyle=orthogonalEdgeStyle;rounded=0;orthogonalLoop=1;jettySize=auto;html=1;exitX=0.5;exitY=1;exitDx=0;exitDy=0;" edge="1" parent="0NSMT4B0oJafNMBnnf4J-60" source="0NSMT4B0oJafNMBnnf4J-110" target="0NSMT4B0oJafNMBnnf4J-109">
          <mxGeometry relative="1" as="geometry" />
        </mxCell>
        <mxCell id="0NSMT4B0oJafNMBnnf4J-110" value="junho = 21" style="shape=parallelogram;perimeter=parallelogramPerimeter;whiteSpace=wrap;html=1;fixedSize=1;" vertex="1" parent="0NSMT4B0oJafNMBnnf4J-60">
          <mxGeometry x="510" y="255" width="120" height="60" as="geometry" />
        </mxCell>
        <mxCell id="0NSMT4B0oJafNMBnnf4J-111" value="setembro = 6" style="shape=parallelogram;perimeter=parallelogramPerimeter;whiteSpace=wrap;html=1;fixedSize=1;" vertex="1" parent="0NSMT4B0oJafNMBnnf4J-60">
          <mxGeometry x="510" y="435" width="120" height="60" as="geometry" />
        </mxCell>
        <mxCell id="0NSMT4B0oJafNMBnnf4J-112" value="&lt;div style=&quot;line-height: 19px; white-space: pre;&quot;&gt;&lt;span style=&quot;background-color: rgb(255, 255, 255);&quot;&gt;&lt;font style=&quot;font-size: 18px;&quot; face=&quot;Helvetica&quot;&gt;&lt;b&gt;mes&amp;lt;4 ou mes&amp;gt;9&lt;/b&gt;&lt;/font&gt;&lt;/span&gt;&lt;/div&gt;" style="rhombus;whiteSpace=wrap;html=1;" vertex="1" parent="0NSMT4B0oJafNMBnnf4J-60">
          <mxGeometry x="20" y="267.5" width="175" height="200" as="geometry" />
        </mxCell>
        <mxCell id="0NSMT4B0oJafNMBnnf4J-114" value="&lt;font style=&quot;font-size: 18px;&quot;&gt;&lt;b&gt;FIM&lt;/b&gt;&lt;/font&gt;" style="ellipse;whiteSpace=wrap;html=1;" vertex="1" parent="0NSMT4B0oJafNMBnnf4J-60">
          <mxGeometry x="790" y="507.5" width="120" height="80" as="geometry" />
        </mxCell>
        <mxCell id="0NSMT4B0oJafNMBnnf4J-116" value="&lt;b&gt;&lt;font style=&quot;font-size: 18px;&quot;&gt;mes invalido&lt;/font&gt;&lt;/b&gt;" style="shape=document;whiteSpace=wrap;html=1;boundedLbl=1;" vertex="1" parent="0NSMT4B0oJafNMBnnf4J-60">
          <mxGeometry x="210" y="495" width="200" height="105" as="geometry" />
        </mxCell>
        <mxCell id="0NSMT4B0oJafNMBnnf4J-118" value="" style="endArrow=classic;html=1;rounded=0;exitX=0.5;exitY=1;exitDx=0;exitDy=0;entryX=0.5;entryY=0;entryDx=0;entryDy=0;" edge="1" parent="0NSMT4B0oJafNMBnnf4J-60" source="0NSMT4B0oJafNMBnnf4J-103" target="0NSMT4B0oJafNMBnnf4J-112">
          <mxGeometry width="50" height="50" relative="1" as="geometry">
            <mxPoint x="410" y="305" as="sourcePoint" />
            <mxPoint x="460" y="255" as="targetPoint" />
          </mxGeometry>
        </mxCell>
        <mxCell id="0NSMT4B0oJafNMBnnf4J-119" value="" style="shape=document;whiteSpace=wrap;html=1;boundedLbl=1;" vertex="1" parent="0NSMT4B0oJafNMBnnf4J-60">
          <mxGeometry x="640" y="355" width="120" height="80" as="geometry" />
        </mxCell>
        <mxCell id="0NSMT4B0oJafNMBnnf4J-120" value="" style="shape=document;whiteSpace=wrap;html=1;boundedLbl=1;" vertex="1" parent="0NSMT4B0oJafNMBnnf4J-60">
          <mxGeometry x="210" y="265" width="120" height="80" as="geometry" />
        </mxCell>
        <mxCell id="0NSMT4B0oJafNMBnnf4J-121" value="" style="shape=document;whiteSpace=wrap;html=1;boundedLbl=1;" vertex="1" parent="0NSMT4B0oJafNMBnnf4J-60">
          <mxGeometry x="210" y="365" width="120" height="80" as="geometry" />
        </mxCell>
        <mxCell id="0NSMT4B0oJafNMBnnf4J-122" value="" style="shape=document;whiteSpace=wrap;html=1;boundedLbl=1;" vertex="1" parent="0NSMT4B0oJafNMBnnf4J-60">
          <mxGeometry x="210" y="65" width="120" height="80" as="geometry" />
        </mxCell>
        <mxCell id="0NSMT4B0oJafNMBnnf4J-123" value="" style="shape=document;whiteSpace=wrap;html=1;boundedLbl=1;" vertex="1" parent="0NSMT4B0oJafNMBnnf4J-60">
          <mxGeometry x="210" y="165" width="120" height="80" as="geometry" />
        </mxCell>
      </root>
    </mxGraphModel>
  </diagram>
</mxfile>
